<svg xmlns="http://www.w3.org/2000/svg" viewBox="0 0 800 800" fill="none">
  <rect width="800" height="800" fill="#EFEFEF"/>
  <path
    fill="#67B9DD"
    d="M266 263c-9 0-15 10-10 17l44 52c14 17 17 41 8 60L249 521c-4 10 2 20 14 20h98c8 0 15-5 18-12l58-128c11-24 35-40 61-40h95c48 0 86 36 86 82 0 47-40 82-91 82H526c-17 0-32 10-38 25l-34 76c-4 10 3 20 14 20h133c122 0 221-95 221-213 0-117-100-213-223-213H266Z"
  />
  <path
    fill="#fff"
    d="M422 361c10-22 33-36 57-36h126c34 0 62 27 62 60 0 34-28 60-62 60h-54c-17 0-32 10-38 25l-40 89h-58l7-18 57-126Z"
  />
  <path
    fill="#fff"
    d="M387 325h58L342 559h-58l74-166c9-20 24-53 29-68Z"
  />
</svg>
