<svg xmlns="http://www.w3.org/2000/svg" viewBox="0 0 512 512" fill="none">
  <rect width="512" height="512" rx="32" fill="#F3F4F6"/>
  <path
    fill="#67B9DD"
    d="M161 143c-8 0-13 9-8 15l39 47c12 14 15 34 7 52l-52 113c-4 8 2 17 11 17h64c4 0 8-2 10-6l63-136c7-15 22-24 39-24h64c26 0 48 21 48 48s-22 48-48 48h-41c-10 0-18 6-22 15l-24 54c-3 8 2 17 11 17h73c73 0 132-59 132-132s-59-132-132-132H161Z"
  />
  <path
    fill="#fff"
    d="M250 222c5-12 17-19 30-19h86c23 0 42 18 42 41s-19 41-42 41h-34c-10 0-18 6-22 15l-32 71h-47l58-128Z"
  />
  <path
    fill="#fff"
    d="M219 371h-47l56-122c5-12 17-19 30-19h19l-58 141Z"
  />
</svg>
